<?xml version="1.0" encoding="UTF-8" standalone="no"?>
<svg
   version="1.0"
   width="1279.9656pt"
   height="53.990772pt"
   viewBox="0 0 1279.9656 53.990772"
   preserveAspectRatio="xMidYMid"
   id="svg5"
   sodipodi:docname="paper-border-bottom.svg"
   inkscape:version="1.4.2 (ebf0e940d0, 2025-05-08)"
   xmlns:inkscape="http://www.inkscape.org/namespaces/inkscape"
   xmlns:sodipodi="http://sodipodi.sourceforge.net/DTD/sodipodi-0.dtd"
   xmlns="http://www.w3.org/2000/svg"
   xmlns:svg="http://www.w3.org/2000/svg">
  <defs
     id="defs5">
    <clipPath
       clipPathUnits="userSpaceOnUse"
       id="clipPath5">
      <rect
         style="fill:#e3dbdb;stroke:#000000;stroke-width:0.69458"
         id="rect6"
         width="12484.607"
         height="539.90771"
         x="109.07997"
         y="-9109.8926"
         transform="scale(1,-1)" />
    </clipPath>
  </defs>
  <sodipodi:namedview
     id="namedview5"
     pagecolor="#ffffff"
     bordercolor="#000000"
     borderopacity="0.25"
     inkscape:showpageshadow="2"
     inkscape:pageopacity="0.0"
     inkscape:pagecheckerboard="0"
     inkscape:deskcolor="#d1d1d1"
     inkscape:document-units="pt"
     inkscape:zoom="0.53017241"
     inkscape:cx="868.58537"
     inkscape:cy="245.20325"
     inkscape:window-width="1584"
     inkscape:window-height="852"
     inkscape:window-x="8"
     inkscape:window-y="40"
     inkscape:window-maximized="0"
     inkscape:current-layer="svg5" />
  <metadata
     id="metadata1">
Created by potrace 1.15, written by Peter Selinger 2001-2017
</metadata>
  <g
     transform="matrix(0.10252349,0,0,-0.1,-11.183259,910.98926)"
     fill="#000000"
     stroke="none"
     id="g5"
     style="display:inline"
     clip-path="url(#clipPath5)">
    <path
       d="m 5825.8537,13004.965 c -8,-6 -25,-10 -36,-10 -36,0 -128,-42 -151,-68 -19,-23 -30,-26 -95,-27 -67,-2 -157,-24 -182,-47 -14,-12 -79,-10 -71,2 4,7 -2,7 -17,1 -23,-10 -89,-20 -163,-27 -22,-1 -66,-5 -99,-8 -50,-4 -66,-1 -107,21 l -48,26 -25,-24 c -15,-14 -26,-35 -26,-51 0,-50 -17,-76 -55,-87 -20,-5 -43,-18 -53,-29 -13,-14 -41,-22 -112,-31 -53,-7 -102,-18 -111,-26 -8,-8 -19,-15 -23,-15 -4,0 -26,-9 -49,-19 -24,-11 -56,-23 -72,-27 -17,-4 -38,-14 -48,-23 -17,-15 -20,-14 -34,4 -8,11 -17,15 -19,10 -2,-6 -29,-10 -60,-8 -44,1 -62,7 -83,26 -18,17 -43,27 -81,31 -30,4 -57,6 -60,5 -3,-1 -15,3 -27,9 -13,7 -24,8 -28,3 -14,-24 -131,4 -199,47 -28,18 -63,32 -80,32 -16,0 -45,5 -63,12 -29,10 -36,10 -44,-2 -8,-13 -10,-13 -18,-1 -8,12 -12,12 -26,-2 -9,-10 -32,-17 -50,-17 -27,0 -34,4 -37,23 -2,13 -15,28 -35,37 -19,9 -33,23 -33,33 0,18 -1,18 -27,-1 -16,-10 -44,-26 -63,-36 -19,-9 -42,-20 -50,-25 -20,-11 -115,-41 -130,-41 -6,0 -18,-6 -25,-14 -20,-19 -78,-12 -139,18 -29,14 -56,26 -59,26 -4,0 -34,21 -67,46 -62,49 -84,52 -99,12 -13,-34 -147,-110 -321,-183 -36,-15 -84,-38 -107,-51 l -42,-24 -60,20 c -33,11 -71,20 -85,20 -14,0 -27,4 -30,9 -3,5 -15,7 -26,4 -11,-3 -31,2 -45,11 -22,15 -102,30 -218,42 -44,4 -50,2 -80,-29 -26,-28 -40,-35 -75,-36 -24,0 -57,6 -73,15 -39,19 -125,34 -243,39 -141,7 -159,14 -231,90 -48.00003,50 -69.00003,66 -87.00003,64 -24,-3 -80.00001,22 -110.00001,49 -15,12 -27,13 -77,3 -41,-8 -72,-9 -103,-2 -27,6 -57,7 -76,2 -17,-5 -33,-7 -36,-3 -3,3 -6,1 -6,-5 0,-11 -160,-10 -178,1 -6,4 -35,9 -64,12 -29,2 -62,5 -74,7 -14,1 -38,-18 -77,-63 -77.000002,-87 -107.000002,-152 -107.000002,-228 0,-34 -9.9999997,-90 -21.9999997,-128 -12.0000003,-38 -22.0000003,-97 -23.0000003,-131 0,-34 -4,-65 -7,-69 -4,-3 -4,-12 -1,-20 3,-8 -2,-22 -10,-32 -35,-39 -65.999998,-119 -71.999998,-187 -11,-135 -14,-150 -29,-187 -9,-22 -16,-66 -16,-107 0,-38 -6,-80 -13,-94 -17,-32 -23,-311 -7,-351 5,-15 7,-32 4,-38 -4,-6 -8,-36 -10,-67 -7,-126 -13,-180 -22,-198 -5,-10 -10,-49 -11,-87 -1,-38 -6,-76 -10,-85 -5,-9 -7,-51 -6,-93 2,-59 7,-83 23,-103 27,-33 34,-95 37,-300 2,-183 9,-213 56,-279 16,-22 28.999998,-45 28.999998,-51 0,-5 9,-27 20,-49 16,-29 19,-48 15,-81 -4,-23 -1,-76 6,-116 13,-72 18,-168 18,-314 0,-38 0,-98 0,-132 -1,-59 20,-113 42.0000003,-113 7.9999997,0 57.9999997,-89 59.9999997,-107 2,-11 9,-32 23,-72 17.000002,-45 75.000002,-67 118.000002,-45 16,8 57,19 91,23 34,5 91,16 127,24 89,22 256,38 435,40 167.00004,2 178.00004,1 255.00004,-38 49,-25 68,-28 170,-31 77,-1 132,3 168,12 55,15 121,9 220,-23 23,-7 65,-13 92,-13 28,0 58,-4 68,-9 124,-60 212,-93 238,-88 13,2 29,-2 35,-9 6,-8 18,-14 25,-14 8,0 22,-4 32,-9 9,-5 42,-21 72,-37 73,-36 137,-73 188,-106 46,-31 101,-45 181,-47 49,-1 71,7 225,82 161,79 176,84 251,90 61,4 95,12 145,36 36,17 76,31 90,31 14,0 54,14 88,31 57,27 69,30 115,23 29,-5 88,-9 132,-9 92,-2 196,-17 240,-36 25,-10 129,-17 335,-20 90,-2 419,20 450,30 19,6 50,11 69,11 18,0 49,9 67,21 40,24 94,41 94,29 0,-5 17,-14 38,-21 20,-6 42,-14 47,-18 6,-3 18,-7 29,-8 10,-2 33,-9 50,-17 17,-7 47,-19 66,-26 19,-6 46,-18 60,-25 14,-7 76,-27 138,-44 103,-29 118,-30 190,-22 66,8 97,19 219,80 149,75 183,105 183,166 0,15 8,39 19,53 18,26 38,171 32,229 -1,12 3,41 10,65 6,24 11,60 10,81 0,21 3,47 9,56 5,10 23,69 39,132 16,63 37,131 45,151 11,26 16,75 17,165 1,70 6,136 11,145 8,16 15,157 19,393 1,48 -5,102 -14,135 -12,38 -17,104 -19,218 -1,90 -5,165 -8,167 -3,2 -4,108 -3,237 4,341 2,446 -9,464 -4,6 -10,46 -14,90 -3,43 -13,94 -20,112 -15,38 -26,133 -25,211 2,66 -16,201 -34,256 -9,29 -11,83 -8,195 4,130 2,173 -15,260 -30,151 -33,178 -22,185 12,7 14,26 3,23 -5,-1 -22,5 -39,15 -17,9 -34,13 -37,10 -4,-3 -12,-1 -20,5 -8,7 -18,7 -27,2 z"
       id="path1" />
    <path
       d="m 6194.8537,12068.25 c -8,-5 -51,-14 -95,-19 -104,-14 -112,-16 -120,-24 -4,-4 -25,-7 -46,-7 -25,0 -45,-7 -58,-20 -11,-11 -20,-18 -20,-15 0,2 -12,0 -26,-5 -15,-6 -31,-7 -38,-2 -18,14 -166,15 -166,2 0,-7 -12,-9 -32,-6 -18,3 -37,1 -43,-3 -5,-5 -30,-11 -55,-14 -25,-3 -46,-6 -47,-6 -11,-3 2,-32 22,-51 14,-13 25,-33 25,-44 0,-12 9,-36 20,-54 19,-32 23,-73 7,-88 -13,-14 -7,-75 12,-122 11,-26 22,-60 26,-77 4,-16 14,-38 22,-48 9,-9 14,-20 10,-23 -8,-9 25,-98 41,-110 9,-6 13,-18 9,-26 -3,-9 -1,-33 3,-54 7,-28 6,-42 -3,-49 -7,-5 -13,-30 -14,-55 -1,-44 -6,-97 -17,-190 -3,-26 2,-72 11,-109 14,-55 14,-66 2,-75 -30,-23 -40,-44 -31,-63 5,-10 16,-32 25,-50 9,-18 11,-33 6,-35 -6,-2 -4,-15 5,-32 8,-16 12,-34 9,-41 -2,-8 5,-18 16,-24 11,-6 18,-17 15,-25 -3,-8 3,-20 13,-27 29,-21 36,-38 22,-55 -6,-8 -9,-17 -6,-21 4,-3 2,-12 -3,-18 -15,-18 -21,-176 -8,-193 12,-14 17,-45 22,-125 1,-26 8,-53 14,-59 7,-7.0004 12,-20.0004 12,-30.0004 0,-15 11,-45 43,-115 5,-11 6,-26 3,-32 -4,-6 -4,-17 1,-23 12,-20 13,-79 1,-126 -8,-30 -8,-50 0,-66 8,-18 7,-27 -4,-38 -12,-11 -12,-21 -4,-42 15,-40 13,-46 -20,-57 -35,-13 -34,-9 -16,-45 8,-15 13,-31 11,-35 -3,-4 2,-12 10,-19 8,-7 15,-20 15,-29 0,-19 13,-50 53,-129 15,-30 27,-64 27,-76 0,-13 6,-36 14,-52 9,-16 13,-48 12,-73 -2,-24 0,-56 4,-72 7,-23 4,-30 -15,-43 -57,-37 -32,-74 81,-118 55,-21 72,-23 239,-21 99,1 214,7 255,12 177,24 664,43 1020,41 446,-3 440,-4 507,19 72,24 129,27 140,7 11,-19 131,-79 143,-71 5,3 10,2 10,-3 0,-28 120,-19 265,19 44,12 365,13 585,2 80,-4 174,-6 210,-6 171,3 219,3 410,-1 113,-2 253,1 311.0003,7 92,9 112,8 162,-8 54,-17 58,-17 76,-1 24,22 43,100 35,146 -3,19 -7,94 -8,165 -1,124 -2,132 -28,170 -29,42 -35,83 -17,116 6,11 11,53 11,93 0,68 3,77 34,116 19,24 34,50 35,59 0,9 3,25 5,36 10,45 14,138 6,149 -15,19 -20,65 -11,105 25,111.0004 33,232.0004 20,289.0004 -15,61 -20,89 -27,172 -4,36 -10,70 -13,75 -4,6 -8,38 -10,72 -2,50 3,75 25,123 14,33 24,69 21,80 -3,11 -2,22 2,24 10,6 2,264 -9,301 -5,17 -12,58 -15,92 -5,47 -13,69 -33,90 -22,24 -25,36 -24,93 1,36 -3,72 -8,80 -6,10 -2,22 14,40 30,32 55,115 50,160 -3,19 -6,53 -8,75 -2,21 -8,41 -15,43 -6,2 -11,10 -11,18 0,8 -7,17 -15,21 -9,3 -22,18 -30,33 -23,45 -44,61 -71,54 -14,-4 -34,0 -47,8 -12,8 -43,20 -69,26 -25,7 -59,17 -75.0003,23 -46,19 -57,20 -313,23 -135,1 -265,7 -290,13 -59,15 -363,14 -372,0 -4,-7 -11,-7 -20,-1 -19,15 -58,15 -58,1 0,-9 -20,-13 -59,-14 -49,-2 -66,3 -97,23 -38,26 -104,40 -104,22 0,-6 -6,-8 -13,-5 -8,3 -35,1 -62,-4 -27,-5 -51,-6 -54,-1 -3,4 -28,7 -56,6 -27,-1 -63,5 -78,13 -26,13 -38,12 -120,-8 -72,-17 -128,-23 -257,-25 -91,-2 -239,-6 -330,-9 -91,-3 -241,-7 -335,-9 -93,-2 -204,-4 -245,-6 -41,-1 -91,1 -110,4 -85,13 -384,7 -409,-9 -12,-7 -148,44 -194,72 -27,17 -58,25 -110,28 -48,4 -76,10 -83,20 -13,17 -14,17 -35,5 z"
       id="path2" />
    <path
       d="m 10693.089,12816.155 c -9,-9 -467,-28 -564,-24 -99,5 -275.9996,-2 -300.9996,-11 -14,-6 -36,-10 -50,-10 -12.9995,0 -31.9995,-4 -41.9995,-9 -26,-14 -148,-33 -230,-37 -41,-1 -88,-7 -105,-12 -18,-5 -61,-8 -97,-7 -36,1 -74,-2 -85,-6 -26,-9 -161,-22 -250,-24 -38,-1 -194,-5 -346,-9 -193,-6 -283,-5 -297,3 -15,8 -33,7 -69,-3 -26,-8 -75,-22 -108,-31 -33,-9 -80,-26 -105,-38 -24,-12 -49,-22 -54,-22 -17,0 -18,-31 -3,-47 12,-12 13,-18 1,-39 -7,-13 -10,-34 -7,-46 3,-12 -2,-36 -10,-52 -9,-18 -11,-33 -6,-37 5,-3 9,-20 9,-37 0,-18 4,-47 9,-64 8,-26 6,-37 -10,-57 -13,-17 -15,-26 -7,-28 8,-3 5,-18 -10,-49 -12,-25 -24,-59 -26,-76 -1,-17 -10,-41 -20,-54 -9,-13 -16,-43 -16,-67 0,-23 -6,-53 -14,-65 -8,-12 -17,-42 -21,-67 -9,-75 -11,-82 -26,-94 -19,-15 -23,-79 -16,-256 1,-19 -2,-45 -6,-56 -6,-17 -3,-23 14,-27 11,-3 19,-10 16,-14 -8,-12 13,-71 36,-103 20,-29 22,-58 5,-97 -6,-15 -13,-39 -14,-53 -2,-13 -24,-44 -49,-68 -49,-49 -50,-52 -33,-116 10,-37 9,-50 -2,-71 -11,-21 -11,-28 -2,-34 7,-4 13,-16 13,-27 -1,-10 -1,-34 -1,-53 -1,-18 4,-39 9,-44 6,-6 11,-20 11,-32 0,-11 11,-37 26,-58 23,-34 24,-39 10,-53 -22,-22 -20,-33 8,-40 18,-4 25,-14 30,-45 3,-21 11,-39 17,-39 6,0 7,-6 1,-16 -5,-10 -6,-32 -1,-53 6,-26 4,-40 -7,-52 -8,-9 -18,-33 -21,-53 -5,-31 -3,-36 15,-36 23,0 66,-81 77,-147 6,-35 3,-45 -17,-65.0001 -30,-29 -50,-68 -44,-84 3,-7 -2,-18 -10,-24 -8,-7 -14,-17 -14,-22 0,-5 -10,-22 -21,-38 -12,-16 -21,-41 -20,-57 1,-15 2,-41 2,-56 0,-16 6,-39 14,-51 24,-35 29,-94 11,-121 -22,-34 -20,-43 13,-63 23,-14 27,-21 20,-35 -7,-11 -5,-26 5,-46 8,-15 13,-31 10,-34 -3,-3 2,-22 10,-42 9,-20 13,-41 11,-46 -3,-4 -8,-47 -11,-94 -4,-80 -3,-89 23,-135 15,-28 34,-50 41,-50 8,0 10,-8 6,-25 -7,-27 15,-86 31,-83 5,1 23,-4 40,-11 25,-11 40,-8 120,20 122,43 199,51 824,79 194,8 246,8 252,-2 4,-7 11,-9 15,-6 3,4 19,1 35,-7 19,-10 61,-15 131,-15 57,-1 123,-6 148,-11 25,-6 77,-14 115,-19 39,-4 85.9995,-12 104.9995,-18 35,-11 498.9996,-19 764.9996,-13 175,3 449,-15 503,-34 37,-13 66,-14 203,-4 135,9 175,8 247,-4 154,-27 747,-48 1015,-36 82,4 90,2 107,-19 23,-27 72,-39 87,-20 14,17 33,99 33,140 0,18 8,47 18,65 59,108 77,133 108,148 42,20 53,56 31,95 -9,15 -14,30 -10,34 3,3 -2,15 -12,26 -16,17 -18,35 -16,106 1,47 6,95 10,107 5,13 7,36 5,52 -2,17 -3,53 -2,80 5,177 4,188 -38,261 -50,89 -62,120 -63,166.0001 -1,21 -7,41 -15,45 -16,9 -29,153 -13,153 6,0 6,5 -1,13 -10,12 0,115 13,137 4,6 9,48 12,93 2,45 7,116 10,157 9,133 10,180 4,180 -3,0 -6,26 -7,58 -1,51 -8,97 -18,127 -11,32 13,167 40,221 23,48 29,74 31,139 2,44 9,145 16,225 13,147 8,252 -14,287 -9,15 -7,27 9,59 17,33 18,46 10,89 -5,28 -11,82 -12,120 -2,39 -6,104 -10,146 -6,69 -4,77 15,95 12,10 27,30 34,44 17,34 11,131 -9,146 -9,6 -16,16 -16,22 0,20 -71,34 -235,46 -16,1 -48,7 -70,13 -57,17 -145,26 -257,26 -71,0 -95,3 -92,12 5,13 -55,29 -179,46 -77,10 -151,5 -173,-12 -7,-6 -15,-4 -22,3 -7,9 -49,14 -129,16 -65,2 -145,8 -178,14 -65,12 -111,12 -190,2 -40,-5 -54,-3 -64,10 -8,10 -30,16 -55,17 -22,1 -52,4 -66,8 -14,4 -45,2 -70,-4 -35,-9 -53,-9 -80,1 -48,17 -90,17 -110,-1 -15,-13 -19,-13 -38,5 -24,22 -48,26 -54,8 -3,-8 -11,-9 -24,-3 -20,9 -99,17 -105,10 z"
       id="path3" />
    <path
       d="m 5119.3715,9936.8953 c -3,-4 -6,-14 -6,-23 0,-20 -46,-55 -97,-74 -21,-8 -52,-20 -70,-27 -25,-10 -37,-10 -55,-1 -37,20 -152,18 -166,-4 -10,-15 -76,-44 -100,-44 -11,0 -22,-6 -25,-14 -5,-11 -98,-37 -152,-42 -179,-15 -180,-15 -200,-58 -19,-39 -24,-92 -23,-236 1,-156 0,-200 -1,-303 -1,-101 15,-136 83,-182 48,-33 60,-32 106,8 82,70 253,112 390,95 47,-5 99,-16 115,-23 58,-25 151,-38 265,-37 76,1 138,-5 183,-16 59,-14 75,-14 125,-2 103,24 167,24 216,0 39,-18 50,-20 86,-10 44,12 118,12 135,-1 6,-4 25,-10 43,-14 26,-5 38,-2 62,18 16,14 46,31 66,37 43,15 137,5 155,-16 6,-8 17,-14 23,-14 7,0 38,-14 70,-31 56,-30 60,-31 114,-20 38,8 134,10 292,7 323,-7 472,-18 478,-34 4,-14 66,-42 93,-42 11,0 37,16 58,35 22,20 53,40 70,45 29,8 37,4 102,-52 38,-33 73,-58 76,-54 4,3 13,0 22,-7 22,-19 102,-47 132,-47 27,0 46,17 69,63 24,49 64,74 146,92 63,14 85,15 117,5 21,-6 71,-14 110,-17 49,-4 93,-16 137,-36 64,-29 66,-29 195,-23 72,3 156,11 188,16 43,8 73,8 115,-1 74,-15 276,-13 374,5 43,7 106,28 142,45 36,17 71,31 79,31 7,0 37,18 66,40 62,45 108,55 215,47 39,-4 90,-3 114,2 23,5 42,4 42,0 0,-5 6,-9 13,-9 14,0 155.0005,-57 171.0005,-69 41,-30 117,-46 226,-46 63,0 120,3 126,7 5,4 9,22 8,40 -2,18 13,86 32,151 19,66 32,122 30,126 -2,3 -10,69 -16,146 -9,103 -16,146 -29,165 -35,49 -65,143 -64,198 1,28 -2,52 -6,52 -3,0 -5,18 -3,40 3,33 1,40 -13,40 -32,0 -97,-24 -102,-37 -3,-7 -15,-13 -28,-13 -12,0 -30,-9 -41,-21 -15,-17 -26,-20 -56,-15 -23,4 -51,1 -71,-7 -37,-16 -134.0005,-8 -146.0005,11 -4,7 -20,14 -37,18 -25,5 -32,2 -42,-20 -7,-17 -24,-28 -51,-36 -22,-6 -43,-15 -46,-19 -7,-13 -229,-5 -254,8 -11,6 -33,11 -50,11 -16,0 -31,5 -33,12 -3,7 -29,13 -68,15 -35,1 -66,7 -70,13 -4,7 -47,8 -131,4 -68,-4 -133,-7 -144,-6 -60,2 -151,15 -160,22 -15,12 -76,5 -85,-10 -9,-15 -98,-31 -106,-18 -3,4 -10,6 -15,3 -5,-4 -41,-8 -79,-10 -52,-2 -70,0 -70,10 0,22 -90,39 -117,22 -6,-4 -22,-3 -35,2 -12,4 -50,7 -83,6 -45,-2 -73,3 -110,20 -55,25 -172,32 -212,13 -16,-8 -26,-8 -35,0 -17,13 -145,14 -154,1 -8,-14 -49,-29 -98,-34 -22,-3 -51,-10 -63,-17 -26,-13 -89,3 -135,34 -19,13 -33,16 -50,10 -12,-5 -42,-12 -65,-16 -42,-6 -43,-6 -43,23 v 28 l -77,-19 c -43,-11 -98,-22 -123,-25 -26,-3 -53,-13 -63,-24 -15,-16 -28,-19 -68,-15 -28,2 -56,9 -63,15 -7,6 -34,12 -61,15 -30,2 -51,9 -57,20 -5,9 -15,16 -23,16 -7,0 -22,11 -33,25 -11,13 -39,31 -63,39 -49,17 -59,11 -59,-37 0,-17 -7,-30 -17,-34 -10,-4 -20,-10 -23,-14 -10,-14 -125,-57 -128,-48 -2,5 -11,9 -21,9 -9,0 -22,5 -29,12 -9,9 -12,9 -12,0 0,-14 -33,-16 -58,-3 -108,58 -174,68 -222,33 -28,-21 -39,-23 -143,-20 -61,2 -141,-2 -176,-8 -42,-8 -73,-9 -89,-3 -14,5 -34,6 -46,3 -61,-20 -293,-25 -308,-6 -6,6 -19,12 -29,12 -34,0 -86,35 -115,77 -29,43 -47,57 -58,46 z"
       id="path4" />
    <path
       d="m 1732.88,10742.439 c -41,-4 -88,-12 -105,-18 -16,-6 -49,-13 -72,-15 -23,-2 -49,-9 -57,-16 -19,-16 -134,-42 -141,-31 -2,4 -30,3 -62,-1 -82,-11 -418,-15 -478,-6 -27,5 -104,8 -170,8 -66,0 -136,4 -157,9 -124,34 -286,39 -342,11 -23,-11 -57,-22 -77,-26 -30,-4 -38,-11 -42,-33 -3,-17 2,-36 14,-53 11,-16 22,-53 25,-88 4,-35 12,-62 20,-65 8,-3 13,-28 14,-73 4,-189 8,-240 19,-262 8,-15 11,-39 6,-68 -4,-30 -2,-49 6,-60 15,-17 14,-70 -1,-88 -5,-7 -7,-15 -4,-18 13,-13 -6,-54 -32,-67 -37,-21 -66,-86 -58,-133 4,-29 2,-43 -12,-58 -10,-11 -12,-19 -6,-19 18,0 14,-65 -3,-80 -9,-7 -12,-17 -8,-21 4,-4 5,-43 1,-86 -4,-43 -8,-98 -10,-123 -3,-25 2,-60 10,-80 9,-19 14,-39 13,-44 -1,-5 1,-16 5,-25 11,-26 15,-43 20,-90 3,-25 9,-50 15,-57 7,-8 5,-23 -5,-47 -17,-41 -7,-57 35,-57 15,0 29,-5 31,-10 2,-7 37,-8 108,-2 103,8 203,2 270,-17 19,-5 67,-19 105,-31 39,-11 88,-23 110,-25 21,-3 48,-11 60,-19 32,-20 64,-28 150,-36 173,-16 282,-31 325,-45 25,-8 77,-16 115,-17 59,-1 77,3 115,25 25,14 70,30 100,35 83,15 529,2 615,-18 28,-6 112,-11 190,-9 77,1 258,1 401,1 243,-2 265,-3 310,-23 44,-19 71,-22 274,-25 171,-3 243,0 300,11 66,13 181,18 400,16 36,-1 109,8 162,19 53,11 130,20 171,20 94,0 228,25 281,52 40,21 46,21 201,10 211,-16 356,0 477,53 106,46 141,74 156,124 17,56 16,186 -2,245 -12,38 -13,66 -6,120 8,66 6,129 -6,183 -2,12 -15,33 -28,45 -13,13 -26,34 -29,48 -7,29 24,118 79,227 31,60 36,78 32,117 -4,29 -1,52 8,64 12,18 25,212 14,212 -3,0 -6,8 -7,18 -2,20 -12,76 -19,110 -3,16 -11,22 -32,22 -47,0 -72,11 -72,32 0,10 -11,35 -25,55 -18,28 -22,41 -14,55 5,10 15,18 22,18 22,0 -16,19 -73,36 -69,21 -190,25 -190,6 0,-8 -5,-10 -12,-5 -13,8 -138,13 -403,17 -140,2 -223,14 -265,36 -10,5 -37,11 -61,14 -24,2 -71,14 -103,25 -33,12 -68,19 -78,15 -10,-3 -18,-1 -18,4 0,13 -71,13 -87,1 -7,-7 -14,-6 -18,0 -4,7 -15,5 -33,-7 -41,-27 -224,-42 -282,-24 -25,8 -49,18 -55,22 -5,4 -45,10 -87,14 -43,4 -95,13 -115,20 -21,7 -56,11 -79,8 -28,-2 -46,1 -56,12 -13,12 -27,13 -79,6 -35,-5 -152,-12 -259,-15 -107,-4 -219,-8 -249,-10 -29,-2 -65,1 -80,5 -48,16 -134,21 -431,25 -262,3 -353,7 -480,19 -19,2 -69,0 -110,-4 z"
       id="path5" />
  </g>
</svg>
