<svg xmlns="http://www.w3.org/2000/svg" viewBox="0 0 81.39 126.63"><defs><style>.cls-1{fill:#86519f;}.cls-2{fill:#0da9e0;}.cls-3{fill:#75c044;}.cls-4{fill:#fcee21;}.cls-5{fill:#f29321;}.cls-6{fill:#d12d29;}</style></defs><title>8</title><g id="Layer_2" data-name="Layer 2"><g id="Layer_1-2" data-name="Layer 1"><path class="cls-1" d="M73.28,37.64h5a37.71,37.71,0,1,1-2.87-14.41,37.68,37.68,0,0,1,2.87,14.41h-5A32.58,32.58,0,0,0,10.6,25.16a32.5,32.5,0,0,0,0,25A32.58,32.58,0,0,0,73.28,37.64Z"/><path class="cls-2" d="M68.27,37.64h5A32.62,32.62,0,0,1,10.56,50.12,32.62,32.62,0,0,1,28.21,7.5a32.62,32.62,0,0,1,35.55,7.07,32.66,32.66,0,0,1,9.56,23.07h-5a27.59,27.59,0,1,0-8.08,19.49A27.63,27.63,0,0,0,68.27,37.64Z"/><path class="cls-3" d="M63.25,37.64h5.06a27.6,27.6,0,1,1-8.09-19.53,27.69,27.69,0,0,1,8.09,19.53H63.25a22.53,22.53,0,1,0-6.6,16A22.62,22.62,0,0,0,63.25,37.64Z"/><path class="cls-4" d="M58.24,37.64h5a22.6,22.6,0,1,1-6.62-16,22.62,22.62,0,0,1,6.62,16h-5A17.55,17.55,0,1,0,53.1,50,17.6,17.6,0,0,0,58.24,37.64Z"/><path class="cls-5" d="M53.23,37.64h5.05A17.58,17.58,0,1,1,53.13,25.2a17.64,17.64,0,0,1,5.15,12.44H53.23a12.53,12.53,0,1,0-3.67,8.86A12.58,12.58,0,0,0,53.23,37.64Z"/><path class="cls-6" d="M48.21,37.64h5.06a12.58,12.58,0,1,1-3.69-8.89,12.56,12.56,0,0,1,3.69,8.89H48.21A7.51,7.51,0,1,0,46,43,7.53,7.53,0,0,0,48.21,37.64Z"/><path class="cls-6" d="M15.49,60.73a35.64,35.64,0,1,0,60.85,25.2h5A40.69,40.69,0,1,1,11.92,57.15"/><path class="cls-6" d="M40.7,45.23a40.7,40.7,0,0,1,40.69,40.7h-5A35.63,35.63,0,0,0,40.7,50.29"/><path class="cls-5" d="M71.33,85.93h5A35.68,35.68,0,0,1,7.73,99.59,35.69,35.69,0,0,1,15.46,60.7,35.69,35.69,0,0,1,76.38,85.93h-5a30.63,30.63,0,1,0-9,21.66A30.73,30.73,0,0,0,71.33,85.93Z"/><path class="cls-4" d="M66.31,85.93h5.06a30.68,30.68,0,1,1-9-21.69,30.78,30.78,0,0,1,9,21.69H66.31A25.62,25.62,0,1,0,58.81,104,25.62,25.62,0,0,0,66.31,85.93Z"/><path class="cls-3" d="M61.3,85.93h5a25.66,25.66,0,1,1-7.51-18.14,25.7,25.7,0,0,1,7.51,18.14h-5a20.59,20.59,0,1,0-6,14.57A20.68,20.68,0,0,0,61.3,85.93Z"/><path class="cls-2" d="M56.29,85.93h5.05a20.64,20.64,0,1,1-6.05-14.6,20.71,20.71,0,0,1,6.05,14.6H56.29a15.6,15.6,0,1,0-4.57,11A15.6,15.6,0,0,0,56.29,85.93Z"/><path class="cls-1" d="M51.27,85.93h5.06a15.64,15.64,0,1,1-4.58-11.05,15.68,15.68,0,0,1,4.58,11.05H51.27a10.57,10.57,0,1,0-3.09,7.48A10.61,10.61,0,0,0,51.27,85.93Z"/><path class="cls-6" d="M40.7,45.23h0a41.27,41.27,0,0,0-9.11,1.05,2.5,2.5,0,0,0,.22.24,12.62,12.62,0,0,0,8.89,3.69Z"/><path class="cls-5" d="M40.7,50.17a12.62,12.62,0,0,1-8.86-3.67l-.21-.23a41.89,41.89,0,0,0-5.23,1.57,17.18,17.18,0,0,0,1.86,2.23A17.64,17.64,0,0,0,40.7,55.22Z"/><path class="cls-4" d="M40.7,55.18a17.33,17.33,0,0,1-14.26-7.35c-.44.16-.89.32-1.32.51-1.15.47-2.28,1-3.38,1.59a21.53,21.53,0,0,0,3,3.68,22.63,22.63,0,0,0,16,6.62Z"/><path class="cls-3" d="M40.7,60.19a22.62,22.62,0,0,1-16-6.6,22.27,22.27,0,0,1-3-3.68,38,38,0,0,0-4.32,2.63,27.13,27.13,0,0,0,3.71,4.62A27.71,27.71,0,0,0,40.7,65.25Z"/><path class="cls-2" d="M40.7,65.21a27.68,27.68,0,0,1-19.5-8.08,27.13,27.13,0,0,1-3.71-4.62,41.7,41.7,0,0,0-4,3.15,32.6,32.6,0,0,0,14.7,12.11A32.56,32.56,0,0,0,40.7,70.26Z"/><path class="cls-1" d="M40.7,70.22A32.52,32.52,0,0,1,13.54,55.63c-.55.49-1.1,1-1.62,1.52-.69.69-1.34,1.42-2,2.15a37.07,37.07,0,0,0,4.14,5,37.71,37.71,0,0,0,26.62,11Z"/></g></g></svg>