<svg xmlns="http://www.w3.org/2000/svg" viewBox="0 0 87.88 120.96"><defs><style>.cls-1{fill:#d12d29;}.cls-2{fill:#f29321;}.cls-3{fill:#fcee21;}.cls-4{fill:#75c044;}.cls-5{fill:#0da9e0;}.cls-6{fill:#864e9f;}</style></defs><title>T</title><g id="Layer_2" data-name="Layer 2"><g id="Layer_1-2" data-name="Layer 1"><rect class="cls-1" x="28.88" y="20.08" width="5.05" height="100.88"/><rect class="cls-2" x="33.9" y="20.08" width="5.05" height="100.88"/><rect class="cls-3" x="38.91" y="20.08" width="5.05" height="100.88"/><rect class="cls-4" x="43.92" y="20.08" width="5.05" height="100.88"/><rect class="cls-5" x="48.94" y="20.08" width="5.05" height="100.88"/><rect class="cls-6" x="53.95" y="20.08" width="5.05" height="100.88"/><rect class="cls-1" x="41.42" y="-41.42" width="5.05" height="87.88" transform="translate(46.47 -41.42) rotate(90)"/><rect class="cls-2" x="41.42" y="-36.4" width="5.05" height="87.88" transform="translate(51.48 -36.4) rotate(90)"/><rect class="cls-3" x="41.42" y="-31.39" width="5.05" height="87.88" transform="translate(56.5 -31.39) rotate(90)"/><rect class="cls-4" x="41.42" y="-26.38" width="5.05" height="87.88" transform="translate(61.51 -26.38) rotate(90)"/><rect class="cls-5" x="41.42" y="-21.36" width="5.05" height="87.88" transform="translate(66.52 -21.36) rotate(90)"/><rect class="cls-6" x="41.42" y="-16.35" width="5.05" height="87.88" transform="translate(71.54 -16.35) rotate(90)"/></g></g></svg>